<svg xmlns="http://www.w3.org/2000/svg" viewBox="0 0 512 512" width="512" height="512">
  <defs>
    <linearGradient id="grad" x1="0" y1="0" x2="1" y2="1">
      <stop offset="0%" stop-color="#00C896"/>
      <stop offset="100%" stop-color="#0097B2"/>
    </linearGradient>
  </defs>
  <path d="M256 40 Q176 180 140 280 Q108 380 180 432 Q220 460 256 468 Q292 460 332 432 Q404 380 372 280 Q336 180 256 40Z" fill="url(#grad)"/>
  <path d="M256 356 L218 318 Q198 298 198 276 Q198 254 216 244 Q234 234 250 250 L256 258 L262 250 Q278 234 296 244 Q314 254 314 276 Q314 298 294 318Z" fill="white"/>
</svg>
