<svg xmlns="http://www.w3.org/2000/svg" viewBox="0 0 512 512" width="512" height="512">
  <!-- Lid cap -->
  <rect x="186" y="84" width="140" height="32" rx="12" fill="#005c30"/>
  <!-- Lid band (screw ring) -->
  <rect x="170" y="114" width="172" height="22" rx="6" fill="#003820"/>
  <!-- Jar neck -->
  <rect x="178" y="134" width="156" height="40" fill="#004423"/>
  <!-- Jar body with shoulder curves -->
  <path d="M 178,174 L 334,174
           Q 388,188 388,224
           L 388,408
           Q 388,432 362,432
           L 150,432
           Q 124,432 124,408
           L 124,224
           Q 124,188 178,174 Z" fill="#004423"/>
  <!-- Glass shine -->
  <rect x="142" y="215" width="14" height="168" rx="7" fill="white" fill-opacity="0.08"/>
  <!-- Heart -->
  <path d="M 256,362
           C 208,338 174,304 174,274
           C 174,250 192,238 214,238
           C 231,238 246,248 256,260
           C 266,248 281,238 298,238
           C 320,238 338,250 338,274
           C 338,304 304,338 256,362 Z" fill="white"/>
</svg>
